<?xml version="1.0" encoding="utf-8"?>
<!-- Generator: Adobe Illustrator 19.2.0, SVG Export Plug-In . SVG Version: 6.00 Build 0)  -->
<svg xmlns="http://www.w3.org/2000/svg" xmlns:xlink="http://www.w3.org/1999/xlink" version="1.1" id="browserbinary" x="0px" y="0px" viewBox="0 0 232 192" enable-background="new 0 0 232 192" xml:space="preserve" width="512" height="512">
<g>
	<path fill="#D0E8FF" d="M128,100h16.0156c2.2383,0,3.9922-1.7441,3.9922-3.9688V67.9688c0-2.1875-1.7891-3.9688-3.9922-3.9688H128   c-2.2383,0-3.9922,1.7441-3.9922,3.9688v28.0625C124.0078,98.2188,125.7969,100,128,100z"/>
	<path fill="#D0E8FF" d="M8,184h216V40H8V184z M184.0156,160c0,6.5977-5.3789,11.9668-11.9922,11.9668h-16.0156   c-6.6133,0-11.9922-5.3691-11.9922-11.9668v-28.0645c0-6.5996,5.3789-11.9688,11.9922-11.9688h16.0156   c6.6133,0,11.9922,5.3691,11.9922,11.9688V160z M176.0156,56c6.6133,0,11.9922,5.3691,11.9922,11.9688v36.0625   c0,2.209-1.7891,4-4,4s-4-1.791-4-4V67.9688c0-2.1875-1.7891-3.9688-3.9922-3.9688c-2.2109,0-4-1.791-4-4S173.8047,56,176.0156,56z    M116.0078,67.9688C116.0078,61.3691,121.3867,56,128,56h16.0156c6.6133,0,11.9922,5.3691,11.9922,11.9688v28.0625   c0,6.5996-5.3789,11.9688-11.9922,11.9688H128c-6.6133,0-11.9922-5.3691-11.9922-11.9688V67.9688z M116.0156,119.9668   c6.6133,0,11.9922,5.3691,11.9922,11.9688V168c0,2.209-1.7891,4-4,4s-4-1.791-4-4v-36.0645c0-2.1875-1.7891-3.9688-3.9922-3.9688   c-2.2109,0-4-1.791-4-4S113.8047,119.9668,116.0156,119.9668z M88.0078,56C94.6211,56,100,61.3691,100,67.9688v36.0625   c0,2.209-1.7891,4-4,4s-4-1.791-4-4V67.9688C92,65.7812,90.2109,64,88.0078,64c-2.2109,0-4-1.791-4-4S85.7969,56,88.0078,56z    M88.0078,119.9668c6.6133,0,11.9922,5.3691,11.9922,11.9688V168c0,2.209-1.7891,4-4,4s-4-1.791-4-4v-36.0645   c0-2.1875-1.7891-3.9688-3.9922-3.9688c-2.2109,0-4-1.791-4-4S85.7969,119.9668,88.0078,119.9668z M28,67.9688   C28,61.3691,33.3789,56,39.9922,56h16.0156C62.6211,56,68,61.3691,68,67.9688v28.0625C68,102.6309,62.6211,108,56.0078,108H39.9922   C33.3789,108,28,102.6309,28,96.0312V67.9688z M28,131.9355c0-6.5996,5.3789-11.9688,11.9922-11.9688h16.0156   c6.6133,0,11.9922,5.3691,11.9922,11.9688V160c0,6.5977-5.3789,11.9668-11.9922,11.9668H39.9922   C33.3789,171.9668,28,166.5977,28,160V131.9355z"/>
	<path fill="#D0E8FF" d="M39.9922,100h16.0156C58.2461,100,60,98.2559,60,96.0312V67.9688C60,65.7812,58.2109,64,56.0078,64H39.9922   C37.7539,64,36,65.7441,36,67.9688v28.0625C36,98.2188,37.7891,100,39.9922,100z"/>
	<path fill="#D0E8FF" d="M39.9922,163.9668h16.0156C58.2461,163.9668,60,162.2246,60,160v-28.0645   c0-2.1875-1.7891-3.9688-3.9922-3.9688H39.9922c-2.2383,0-3.9922,1.7441-3.9922,3.9688V160   C36,162.1875,37.7891,163.9668,39.9922,163.9668z"/>
	<path fill="#5CB0FF" d="M8,8v24h216V8H8z M20,28c-4.4102,0-8-3.5879-8-8s3.5898-8,8-8s8,3.5879,8,8S24.4102,28,20,28z M40,28   c-4.4102,0-8-3.5879-8-8s3.5898-8,8-8s8,3.5879,8,8S44.4102,28,40,28z M60,28c-4.4102,0-8-3.5879-8-8s3.5898-8,8-8s8,3.5879,8,8   S64.4102,28,60,28z"/>
	<path fill="#D0E8FF" d="M172.0234,127.9668h-16.0156c-2.2383,0-3.9922,1.7441-3.9922,3.9688V160   c0,2.1875,1.7891,3.9668,3.9922,3.9668h16.0156c2.2383,0,3.9922-1.7422,3.9922-3.9668v-28.0645   C176.0156,129.748,174.2266,127.9668,172.0234,127.9668z"/>
	<path fill="#1C71DA" d="M0,0v32v8v152h232V40v-8V0H0z M224,184H8V40h216V184z M8,32V8h216v24H8z"/>
	<path fill="#1C71DA" d="M20,12c-4.4102,0-8,3.5879-8,8s3.5898,8,8,8s8-3.5879,8-8S24.4102,12,20,12z"/>
	<path fill="#1C71DA" d="M40,12c-4.4102,0-8,3.5879-8,8s3.5898,8,8,8s8-3.5879,8-8S44.4102,12,40,12z"/>
	<path fill="#1C71DA" d="M60,12c-4.4102,0-8,3.5879-8,8s3.5898,8,8,8s8-3.5879,8-8S64.4102,12,60,12z"/>
	<path fill="#1C71DA" d="M39.9922,108h16.0156C62.6211,108,68,102.6309,68,96.0312V67.9688C68,61.3691,62.6211,56,56.0078,56   H39.9922C33.3789,56,28,61.3691,28,67.9688v28.0625C28,102.6309,33.3789,108,39.9922,108z M36,67.9688   C36,65.7441,37.7539,64,39.9922,64h16.0156C58.2109,64,60,65.7812,60,67.9688v28.0625C60,98.2559,58.2461,100,56.0078,100H39.9922   C37.7891,100,36,98.2188,36,96.0312V67.9688z"/>
	<path fill="#1C71DA" d="M128,108h16.0156c6.6133,0,11.9922-5.3691,11.9922-11.9688V67.9688   c0-6.5996-5.3789-11.9688-11.9922-11.9688H128c-6.6133,0-11.9922,5.3691-11.9922,11.9688v28.0625   C116.0078,102.6309,121.3867,108,128,108z M124.0078,67.9688C124.0078,65.7441,125.7617,64,128,64h16.0156   c2.2031,0,3.9922,1.7812,3.9922,3.9688v28.0625c0,2.2246-1.7539,3.9688-3.9922,3.9688H128c-2.2031,0-3.9922-1.7812-3.9922-3.9688   V67.9688z"/>
	<path fill="#1C71DA" d="M172.0234,119.9668h-16.0156c-6.6133,0-11.9922,5.3691-11.9922,11.9688V160   c0,6.5977,5.3789,11.9668,11.9922,11.9668h16.0156c6.6133,0,11.9922-5.3691,11.9922-11.9668v-28.0645   C184.0156,125.3359,178.6367,119.9668,172.0234,119.9668z M176.0156,160c0,2.2246-1.7539,3.9668-3.9922,3.9668h-16.0156   c-2.2031,0-3.9922-1.7793-3.9922-3.9668v-28.0645c0-2.2246,1.7539-3.9688,3.9922-3.9688h16.0156   c2.2031,0,3.9922,1.7812,3.9922,3.9688V160z"/>
	<path fill="#1C71DA" d="M39.9922,171.9668h16.0156C62.6211,171.9668,68,166.5977,68,160v-28.0645   c0-6.5996-5.3789-11.9688-11.9922-11.9688H39.9922c-6.6133,0-11.9922,5.3691-11.9922,11.9688V160   C28,166.5977,33.3789,171.9668,39.9922,171.9668z M36,131.9355c0-2.2246,1.7539-3.9688,3.9922-3.9688h16.0156   c2.2031,0,3.9922,1.7812,3.9922,3.9688V160c0,2.2246-1.7539,3.9668-3.9922,3.9668H39.9922C37.7891,163.9668,36,162.1875,36,160   V131.9355z"/>
	<path fill="#1C71DA" d="M88.0078,64C90.2109,64,92,65.7812,92,67.9688v36.0625c0,2.209,1.7891,4,4,4s4-1.791,4-4V67.9688   C100,61.3691,94.6211,56,88.0078,56c-2.2109,0-4,1.791-4,4S85.7969,64,88.0078,64z"/>
	<path fill="#1C71DA" d="M116.0156,127.9668c2.2031,0,3.9922,1.7812,3.9922,3.9688V168c0,2.209,1.7891,4,4,4s4-1.791,4-4v-36.0645   c0-6.5996-5.3789-11.9688-11.9922-11.9688c-2.2109,0-4,1.791-4,4S113.8047,127.9668,116.0156,127.9668z"/>
	<path fill="#1C71DA" d="M88.0078,127.9668c2.2031,0,3.9922,1.7812,3.9922,3.9688V168c0,2.209,1.7891,4,4,4s4-1.791,4-4v-36.0645   c0-6.5996-5.3789-11.9688-11.9922-11.9688c-2.2109,0-4,1.791-4,4S85.7969,127.9668,88.0078,127.9668z"/>
	<path fill="#1C71DA" d="M176.0156,64c2.2031,0,3.9922,1.7812,3.9922,3.9688v36.0625c0,2.209,1.7891,4,4,4s4-1.791,4-4V67.9688   c0-6.5996-5.3789-11.9688-11.9922-11.9688c-2.2109,0-4,1.791-4,4S173.8047,64,176.0156,64z"/>
</g>
<path fill="#FF5D5D" d="M196.252,167.8237c-1.0234,0-2.0469-0.3906-2.8281-1.1714c-1.5625-1.5625-1.5625-4.0952,0-5.6572  l14.1426-14.1421c1.5605-1.5615,4.0938-1.5615,5.6562,0c1.5625,1.5625,1.5625,4.0952,0,5.6572l-14.1426,14.1421  C198.2998,167.4331,197.2754,167.8237,196.252,167.8237z"/>
<path fill="#FF5D5D" d="M210.3945,167.8223c-1.0234,0-2.0479-0.3906-2.8281-1.1714l-14.1426-14.1426  c-1.5625-1.5625-1.5625-4.0947,0-5.6572c1.5605-1.5615,4.0957-1.5615,5.6562,0l14.1426,14.1426  c1.5625,1.5625,1.5625,4.0947,0,5.6572C212.4424,167.4316,211.418,167.8223,210.3945,167.8223z"/>
<path fill="#00D40B" d="M206.252,87.8237c-7.7197,0-14-6.2803-14-14s6.2803-14,14-14s14,6.2803,14,14  S213.9717,87.8237,206.252,87.8237z M206.252,67.8237c-3.3086,0-6,2.6914-6,6s2.6914,6,6,6s6-2.6914,6-6  S209.5605,67.8237,206.252,67.8237z"/>
<path fill="#FFC504" d="M107.5664,50.4492c-1.0234,0-2.0469-0.3906-2.8281-1.1714L93.4238,37.9644  c-0.75-0.75-1.1719-1.7676-1.1719-2.8286s0.4219-2.0786,1.1719-2.8286l11.3145-11.3135c1.5625-1.5615,4.0938-1.5615,5.6562,0  l11.3135,11.3135c1.5625,1.5625,1.5625,4.0947,0,5.6572l-11.3135,11.3135C109.6143,50.0586,108.5898,50.4492,107.5664,50.4492z   M101.9092,35.1357l5.6572,5.6567l5.6562-5.6567l-5.6562-5.6567L101.9092,35.1357z"/>
</svg>
