<?xml version="1.0" encoding="iso-8859-1"?>
<!-- Generator: Adobe Illustrator 19.0.0, SVG Export Plug-In . SVG Version: 6.00 Build 0)  -->
<svg version="1.1" id="Layer_1" xmlns="http://www.w3.org/2000/svg" xmlns:xlink="http://www.w3.org/1999/xlink" x="0px" y="0px"
	 viewBox="0 0 511.999 511.999" style="enable-background:new 0 0 511.999 511.999;" xml:space="preserve">
<path style="fill:#D3754F;" d="M436.426,114.084l-11.555-11.555L216.98,279.61L39.899,487.502l11.555,11.555
	c6.355,6.355,16.754,6.355,23.108,0l361.864-361.864C442.78,130.837,442.78,120.438,436.426,114.084z"/>
<path style="fill:#F7A676;" d="M397.911,75.57c-6.355-6.355-16.754-6.355-23.108,0L12.94,437.433
	c-6.355,6.355-6.355,16.754,0,23.108l26.959,26.96l384.972-384.973L397.911,75.57z"/>
<polygon style="fill:#414D53;" points="447.98,171.855 384.432,189.187 367.1,252.735 492.271,308.58 503.825,297.026 "/>
<rect x="209.962" y="73.26" transform="matrix(-0.7071 -0.7071 0.7071 -0.7071 463.7685 452.9997)" style="fill:#57676E;" width="231.484" height="114.38"/>
<path d="M511.287,293.697l-55.846-125.171c-0.407-0.913-0.977-1.743-1.684-2.449l-17.33-17.33l5.777-5.777
	c4.616-4.617,7.159-10.773,7.159-17.331c0-6.56-2.544-12.716-7.159-17.331l-38.514-38.514c-4.616-4.617-10.771-7.16-17.331-7.16
	c-6.559,0-12.715,2.544-17.332,7.159l-5.777,5.777L290.073,2.392c-3.191-3.189-8.363-3.191-11.555,0l-80.88,80.88
	c-3.191,3.192-3.191,8.364,0,11.555l73.176,73.177L7.162,431.655c-4.617,4.617-7.159,10.771-7.159,17.331
	c0,6.559,2.541,12.715,7.159,17.331l38.514,38.514c4.778,4.778,11.055,7.167,17.331,7.167s12.553-2.389,17.331-7.167L326.662,258.51
	c3.191-3.192,3.191-8.364,0-11.555c-3.192-3.19-8.364-3.19-11.555,0L68.785,493.279c-3.185,3.185-8.368,3.186-11.554,0
	l-38.514-38.513c-1.531-1.531-2.374-3.583-2.374-5.778c0-2.196,0.842-4.246,2.373-5.777l263.652-263.652l78.954,78.955
	c0.706,0.706,1.536,1.277,2.449,1.684l125.171,55.845c1.069,0.477,2.203,0.708,3.327,0.708c2.123,0,4.214-0.828,5.78-2.392
	l11.554-11.554C511.996,300.41,512.666,296.789,511.287,293.697z M380.581,81.347c1.529-1.531,3.582-2.375,5.777-2.375
	c2.195,0,4.246,0.843,5.777,2.375l38.515,38.514c1.529,1.529,2.374,3.582,2.374,5.777s-0.843,4.246-2.375,5.777l-5.777,5.777
	l-50.067-50.067L380.581,81.347z M490.469,298.829l-118.66-52.94l-83.647-83.648c-0.031-0.031-73.192-73.192-73.192-73.192
	l69.326-69.326l73.167,73.167c0.021,0.022,61.622,61.622,61.622,61.622c0.021,0.022,22.051,22.051,22.051,22.051l52.941,118.66
	L490.469,298.829z"/>
<circle cx="307.794" cy="100.993" r="8.17"/>
<circle cx="273.12" cy="89.435" r="8.17"/>
<g>
</g>
<g>
</g>
<g>
</g>
<g>
</g>
<g>
</g>
<g>
</g>
<g>
</g>
<g>
</g>
<g>
</g>
<g>
</g>
<g>
</g>
<g>
</g>
<g>
</g>
<g>
</g>
<g>
</g>
</svg>
